<svg width="176" height="42" viewBox="0 0 176 42" fill="none" xmlns="http://www.w3.org/2000/svg">
<g clip-path="url(#clip0_14_2064)">
<path d="M100.838 17.8426V24.1117H97.8447C97.7463 24.1115 97.6489 24.1309 97.558 24.1687C97.4671 24.2064 97.3845 24.2619 97.315 24.3318C97.2454 24.4017 97.1903 24.4847 97.1527 24.5761C97.1151 24.6674 97.0959 24.7653 97.096 24.8642V32.7593C97.0962 32.8582 97.0769 32.9561 97.0393 33.0475C97.0018 33.1389 96.9466 33.2219 96.8771 33.2918C96.8075 33.3617 96.7249 33.4171 96.634 33.4549C96.5431 33.4926 96.4457 33.512 96.3474 33.5119H89.1119C89.0136 33.512 88.9162 33.4926 88.8253 33.4549C88.7344 33.4171 88.6518 33.3617 88.5822 33.2918C88.5127 33.2219 88.4575 33.1389 88.42 33.0475C88.3824 32.9561 88.3631 32.8582 88.3633 32.7593V9.18929C88.3631 9.09042 88.3824 8.9925 88.42 8.90113C88.4575 8.80977 88.5127 8.72675 88.5822 8.65684C88.6518 8.58694 88.7344 8.53151 88.8253 8.49375C88.9162 8.45598 89.0136 8.43662 89.1119 8.43677H96.3474C96.4457 8.43647 96.5431 8.45569 96.6339 8.49333C96.7248 8.53097 96.8074 8.58629 96.877 8.6561C96.9466 8.72592 97.0017 8.80886 97.0393 8.90016C97.0769 8.99147 97.0962 9.08933 97.096 9.18814V17.089C97.0959 17.1878 97.1151 17.2858 97.1527 17.3771C97.1903 17.4685 97.2454 17.5515 97.315 17.6214C97.3845 17.6913 97.4671 17.7468 97.558 17.7845C97.6489 17.8223 97.7463 17.8416 97.8447 17.8415L100.838 17.8426Z" fill="#212121"/>
<path d="M61.0359 30.3819H52.8644C52.7132 30.382 52.5655 30.4281 52.4408 30.5141C52.3162 30.6001 52.2203 30.722 52.1657 30.8638L51.3376 33.0334C51.2834 33.1756 51.1876 33.298 51.0629 33.3844C50.9382 33.4708 50.7904 33.5173 50.6389 33.5176H45.4517C45.3295 33.5181 45.209 33.4886 45.1008 33.4315C44.9926 33.3744 44.9 33.2915 44.831 33.1901C44.7621 33.0887 44.7189 32.9718 44.7053 32.8497C44.6917 32.7277 44.7081 32.6041 44.7531 32.4898L52.8019 11.4343C52.947 11.0525 53.1426 10.6923 53.3836 10.3632L56.694 19.0234L55.1376 23.0885C55.0932 23.2028 55.0773 23.3262 55.0911 23.4481C55.1049 23.5699 55.1482 23.6865 55.217 23.7878C55.2858 23.8891 55.3782 23.9719 55.4862 24.0292C55.5941 24.0864 55.7142 24.1163 55.8363 24.1163H58.4492C58.5097 24.1168 58.5701 24.1092 58.6287 24.0934L61.0359 30.3819Z" fill="#212121"/>
<path d="M68.9029 33.5164H63.5704L62.7274 31.3068L54.3594 9.41993C54.4287 9.36512 54.5014 9.31259 54.5741 9.26006C55.1538 8.86127 55.8158 8.59945 56.5105 8.49423C57.2052 8.389 57.9145 8.44309 58.5855 8.65244C59.2564 8.86178 59.8715 9.22097 60.3848 9.70311C60.8981 10.1852 61.2962 10.7778 61.5494 11.4365L69.5993 32.4955C69.644 32.6098 69.6602 32.7333 69.6465 32.8552C69.6327 32.9772 69.5896 33.094 69.5207 33.1953C69.4518 33.2966 69.3593 33.3795 69.2512 33.4367C69.1431 33.4938 69.0228 33.5236 68.9007 33.5233" fill="#212121"/>
<path d="M80.2543 15.9608V32.7593C80.254 32.9586 80.1752 33.1497 80.0351 33.2907C79.895 33.4317 79.705 33.5112 79.5068 33.5118H72.2714C72.173 33.512 72.0756 33.4926 71.9847 33.4549C71.8938 33.4171 71.8112 33.3617 71.7416 33.2918C71.6721 33.2219 71.617 33.1388 71.5794 33.0475C71.5418 32.9561 71.5226 32.8582 71.5227 32.7593V15.9608H80.2543Z" fill="#212121"/>
<path d="M87.1158 9.19043V14.707H64.6609V9.19043C64.6615 8.99014 64.7412 8.79828 64.8824 8.65697C65.0236 8.51566 65.2148 8.43647 65.4141 8.43677H86.3649C86.4634 8.43647 86.561 8.45571 86.6521 8.4934C86.7432 8.53108 86.826 8.58646 86.8957 8.65637C86.9655 8.72628 87.0209 8.80933 87.0586 8.90078C87.0964 8.99223 87.1158 9.09027 87.1158 9.18929" fill="#212121"/>
<path d="M110.818 9.19042V32.7593C110.818 32.8584 110.799 32.9564 110.761 33.0478C110.723 33.1393 110.668 33.2224 110.598 33.2923C110.528 33.3622 110.446 33.4175 110.355 33.4552C110.263 33.4929 110.166 33.5122 110.067 33.5119H102.087V8.43677H110.067C110.266 8.43677 110.457 8.51598 110.598 8.65704C110.738 8.79809 110.818 8.98949 110.818 9.18928" fill="#212121"/>
<path d="M120.037 19.6857V29.4478H117.056V13.339H121.549L124.417 22.3486C124.545 22.8518 124.677 23.3569 124.814 23.8639C124.951 24.3709 125.084 24.876 125.213 25.3792C125.296 25.0892 125.376 24.8014 125.451 24.5159C125.527 24.2304 125.603 23.9427 125.679 23.6526C125.754 23.3626 125.836 23.0767 125.923 22.7951L128.87 13.339H133.34V29.4478H130.359V19.6857C130.359 19.4641 130.369 19.0199 130.389 18.3531C130.408 17.6862 130.437 16.9599 130.474 16.1743C130.208 17.1967 129.975 18.0657 129.774 18.7813C129.573 19.4969 129.409 20.0572 129.281 20.4622L126.396 29.4478H124.01L121.121 20.4599L119.904 16.172C119.95 17.0574 119.984 17.7912 120.006 18.3736C120.029 18.956 120.041 19.3926 120.041 19.6834" fill="#FF6500"/>
<path d="M147.772 23.2518C147.772 25.257 147.219 26.8294 146.111 27.969C145.004 29.1087 143.472 29.6796 141.516 29.6819C139.597 29.6819 138.092 29.1109 137 27.969C135.909 26.8271 135.363 25.2566 135.362 23.2575C135.362 21.2683 135.908 19.7039 137 18.5643C138.093 17.4247 139.621 16.8537 141.584 16.8515C143.594 16.8515 145.128 17.4022 146.185 18.5038C147.243 19.6054 147.773 21.1888 147.776 23.2541M144.431 23.2541C144.431 21.7833 144.192 20.7176 143.714 20.0568C143.237 19.396 142.542 19.0626 141.63 19.0565C140.66 19.0565 139.932 19.4051 139.446 20.1025C138.961 20.7998 138.718 21.8496 138.718 23.2518C138.718 24.632 138.955 25.6822 139.429 26.4024C139.903 27.1225 140.588 27.4826 141.482 27.4826C142.467 27.4826 143.204 27.1301 143.695 26.4252C144.186 25.7203 144.43 24.6625 144.428 23.2518M145.543 12.7669L141.675 15.9231H139.744V15.5691L142.61 12.2758H145.546L145.543 12.7669Z" fill="#FF6500"/>
<path d="M160.863 17.0776L156.319 29.4478H152.497L148.095 17.0753H151.474L153.623 23.9929C153.683 24.1833 153.78 24.5167 153.913 24.9933L154.431 26.8523C154.461 26.7449 154.524 26.5314 154.618 26.2117C154.714 25.8908 154.817 25.5414 154.932 25.16C155.047 24.7786 155.143 24.4577 155.227 24.1985L157.514 17.0753L160.863 17.0776Z" fill="#FF6500"/>
<path d="M165.536 14.8486H162.34V12.4814H165.537L165.536 14.8486ZM165.536 29.4501H162.34V17.0776H165.537L165.536 29.4501Z" fill="#FF6500"/>
<path d="M171.482 12.4814H168.285V29.4501H171.482V12.4814Z" fill="#FF6500"/>
<path d="M20.7895 41.8946C15.2758 41.8946 9.98789 39.6929 6.0891 35.774C2.19032 31.8551 0 26.5399 0 20.9977C0 15.4555 2.19032 10.1403 6.0891 6.22141C9.98789 2.30249 15.2758 0.100861 20.7895 0.100861C26.3032 0.100861 31.5911 2.30249 35.4899 6.22141C39.3887 10.1403 41.579 15.4555 41.579 20.9977C41.579 26.5399 39.3887 31.8551 35.4899 35.774C31.5911 39.6929 26.3032 41.8946 20.7895 41.8946Z" fill="#212121"/>
<path d="M24.5384 12.5362L22.0391 16.6105H15.8011C14.8182 16.6105 13.8449 16.8052 12.9368 17.1833C12.0287 17.5614 11.2036 18.1156 10.5086 18.8143C9.81358 19.513 9.26232 20.3425 8.88627 21.2553C8.51022 22.1682 8.31675 23.1465 8.31689 24.1345V17.2386C8.31675 16.0858 8.54252 14.9443 8.98133 13.8793C9.42014 12.8142 10.0634 11.8465 10.8743 11.0314C11.6853 10.2163 12.648 9.56969 13.7076 9.12862C14.7671 8.68755 15.9028 8.4606 17.0496 8.46075H22.0391L24.5384 12.5362Z" fill="#FF6500"/>
<path d="M33.2666 17.8655V24.766C33.2654 27.0924 32.3454 29.3233 30.7088 30.9683C29.0722 32.6133 26.8529 33.538 24.5384 33.5393H19.5398L17.0405 29.4638L19.5398 25.3883H25.7767C26.7596 25.3885 27.7329 25.194 28.6411 24.816C29.5493 24.438 30.3744 23.8839 31.0695 23.1854C31.7646 22.4868 32.316 21.6574 32.6922 20.7446C33.0684 19.8318 33.262 18.8535 33.262 17.8655" fill="#FFA000"/>
<path d="M17.0496 25.3883V33.5392C14.7343 33.5395 12.5136 32.6155 10.8759 30.9702C9.23829 29.325 8.3178 27.0933 8.31689 24.766V24.1391C8.31675 23.1511 8.51023 22.1728 8.88629 21.26C9.26236 20.3472 9.81364 19.5179 10.5086 18.8193C11.2036 18.1207 12.0288 17.5666 12.9369 17.1885C13.8449 16.8105 14.8182 16.6161 15.8011 16.6162H16.4248C15.9286 16.6162 15.4527 16.8144 15.1018 17.1671C14.7509 17.5198 14.5537 17.9981 14.5537 18.4969V23.5099C14.554 24.0086 14.7513 24.4868 15.1021 24.8394C15.4529 25.1921 15.9287 25.3903 16.4248 25.3906L17.0496 25.3883Z" fill="#FFB188"/>
<path d="M33.2665 17.2386V17.8655C33.2665 18.8535 33.0729 19.8318 32.6967 20.7446C32.3205 21.6574 31.7691 22.4868 31.074 23.1854C30.3789 23.8839 29.5538 24.438 28.6456 24.816C27.7374 25.194 26.7641 25.3885 25.7812 25.3883H25.1575C25.6533 25.3883 26.1289 25.1905 26.4797 24.8383C26.8305 24.4861 27.0279 24.0083 27.0285 23.5099V18.4924C27.0285 17.9936 26.8314 17.5152 26.4805 17.1625C26.1296 16.8098 25.6537 16.6117 25.1575 16.6117H24.5383V8.46075C26.8544 8.46075 29.0756 9.38556 30.7133 11.0317C32.351 12.6779 33.2711 14.9106 33.2711 17.2386" fill="#FFD183"/>
<path d="M175.303 14.136C175.312 14.473 175.221 14.805 175.041 15.0895C174.861 15.3741 174.601 15.5982 174.294 15.7333C173.987 15.8683 173.646 15.9081 173.316 15.8476C172.987 15.787 172.682 15.6289 172.442 15.3934C172.202 15.1579 172.038 14.8558 171.969 14.5257C171.901 14.1956 171.933 13.8526 172.06 13.5406C172.187 13.2286 172.403 12.9618 172.682 12.7743C172.961 12.5868 173.289 12.4872 173.624 12.4882C173.842 12.484 174.059 12.5234 174.262 12.6042C174.465 12.685 174.65 12.8056 174.807 12.9589C174.963 13.1123 175.087 13.2953 175.173 13.4974C175.258 13.6994 175.302 13.9165 175.303 14.136ZM172.35 14.136C172.344 14.3078 172.373 14.479 172.435 14.6392C172.498 14.7995 172.591 14.9454 172.711 15.0684C172.83 15.1913 172.973 15.2888 173.131 15.3548C173.289 15.4208 173.459 15.4541 173.63 15.4526C174.349 15.4526 174.879 14.8702 174.879 14.1463C174.879 13.4223 174.349 12.8194 173.62 12.8194C173.45 12.8205 173.282 12.8557 173.126 12.9228C172.97 12.99 172.829 13.0877 172.712 13.2103C172.594 13.3329 172.501 13.478 172.44 13.6369C172.379 13.7959 172.349 13.9656 172.354 14.136H172.35ZM173.359 15.0004H172.98V13.3526C173.188 13.3154 173.398 13.2986 173.609 13.3024C173.92 13.3024 174.064 13.3526 174.177 13.4234C174.229 13.4678 174.27 13.5233 174.298 13.5857C174.325 13.6482 174.338 13.716 174.336 13.7843C174.336 13.9658 174.197 14.1063 173.996 14.1668V14.1862C174.156 14.2468 174.246 14.3678 174.296 14.5882C174.312 14.7315 174.353 14.8709 174.416 15.0004H174.006C173.943 14.8737 173.899 14.7382 173.876 14.5985C173.846 14.418 173.746 14.337 173.536 14.337H173.359V15.0004ZM173.37 14.0663H173.549C173.759 14.0663 173.93 13.9955 173.93 13.8243C173.93 13.6735 173.816 13.573 173.58 13.573C173.509 13.5715 173.439 13.5784 173.37 13.5936V14.0663Z" fill="#FF6500"/>
</g>
<defs>
<clipPath id="clip0_14_2064">
<rect width="175.303" height="41.7983" fill="white" transform="translate(0 0.100861)"/>
</clipPath>
</defs>
</svg>
